{
  "accessors": [
    {
      "bufferView": 1,
      "componentType": 5126,
      "count": 11568,
      "max": [
        28.293699264526367,
        30.18000030517578,
        25.6825008392334
      ],
      "min": [
        -29.593799591064453,
        -22.258100509643555,
        -24.317100524902344
      ],
      "type": "VEC3"
    },
    {
      "bufferView": 1,
      "byteOffset": 138816,
      "componentType": 5126,
      "count": 11568,
      "max": [
        0.9999346137046814,
        0.9992363452911377,
        0.9976116418838501
      ],
      "min": [
        -0.9951568841934204,
        -0.997399628162384,
        -0.9990382194519043
      ],
      "type": "VEC3"
    },
    {
      "bufferView": 0,
      "componentType": 5125,
      "count": 17352,
      "type": "SCALAR"
    },
    {
      "bufferView": 1,
      "byteOffset": 277632,
      "componentType": 5126,
      "count": 11568,
      "max": [
        28.293699264526367,
        30.340900421142578,
        25.6825008392334
      ],
      "min": [
        -29.593799591064453,
        -22.258100509643555,
        -24.317100524902344
      ],
      "type": "VEC3"
    },
    {
      "bufferView": 1,
      "byteOffset": 416448,
      "componentType": 5126,
      "count": 11568,
      "max": [
        0.9999346137046814,
        0.9992363452911377,
        0.9976116418838501
      ],
      "min": [
        -0.9951568841934204,
        -0.9983001351356506,
        -0.9990383386611938
      ],
      "type": "VEC3"
    },
    {
      "bufferView": 0,
      "byteOffset": 69408,
      "componentType": 5125,
      "count": 17352,
      "type": "SCALAR"
    },
    {
      "bufferView": 1,
      "byteOffset": 555264,
      "componentType": 5126,
      "count": 11568,
      "max": [
        28.293699264526367,
        30.471799850463867,
        25.6825008392334
      ],
      "min": [
        -29.593799591064453,
        -22.194299697875977,
        -24.317100524902344
      ],
      "type": "VEC3"
    },
    {
      "bufferView": 1,
      "byteOffset": 694080,
      "componentType": 5126,
      "count": 11568,
      "max": [
        0.9999346137046814,
        0.9992363452911377,
        0.9999120235443115
      ],
      "min": [
        -0.9951568841934204,
        -0.9996516704559326,
        -0.9990386366844177
      ],
      "type": "VEC3"
    },
    {
      "bufferView": 0,
      "byteOffset": 138816,
      "componentType": 5125,
      "count": 17352,
      "type": "SCALAR"
    },
    {
      "bufferView": 1,
      "byteOffset": 832896,
      "componentType": 5126,
      "count": 11568,
      "max": [
        28.293699264526367,
        30.471799850463867,
        25.6825008392334
      ],
      "min": [
        -29.65369987487793,
        -22.194299697875977,
        -24.317100524902344
      ],
      "type": "VEC3"
    },
    {
      "bufferView": 1,
      "byteOffset": 971712,
      "componentType": 5126,
      "count": 11568,
      "max": [
        0.9999346137046814,
        0.9992363452911377,
        0.9997173547744751
      ],
      "min": [
        -0.9951568841934204,
        -0.9999773502349854,
        -0.9990387558937073
      ],
      "type": "VEC3"
    },
    {
      "bufferView": 0,
      "byteOffset": 208224,
      "componentType": 5125,
      "count": 17352,
      "type": "SCALAR"
    },
    {
      "bufferView": 1,
      "byteOffset": 1110528,
      "componentType": 5126,
      "count": 11568,
      "max": [
        28.293699264526367,
        30.268299102783203,
        25.6825008392334
      ],
      "min": [
        -29.65369987487793,
        -22.194299697875977,
        -24.317100524902344
      ],
      "type": "VEC3"
    },
    {
      "bufferView": 1,
      "byteOffset": 1249344,
      "componentType": 5126,
      "count": 11568,
      "max": [
        0.9999346137046814,
        0.9997419714927673,
        0.9984948635101318
      ],
      "min": [
        -0.9973074793815613,
        -0.9992557764053345,
        -0.9990388751029968
      ],
      "type": "VEC3"
    },
    {
      "bufferView": 0,
      "byteOffset": 277632,
      "componentType": 5125,
      "count": 17352,
      "type": "SCALAR"
    },
    {
      "bufferView": 1,
      "byteOffset": 1388160,
      "componentType": 5126,
      "count": 11568,
      "max": [
        28.293699264526367,
        30.18000030517578,
        25.6825008392334
      ],
      "min": [
        -29.64240074157715,
        -22.194299697875977,
        -24.317100524902344
      ],
      "type": "VEC3"
    },
    {
      "bufferView": 1,
      "byteOffset": 1526976,
      "componentType": 5126,
      "count": 11568,
      "max": [
        0.9999346137046814,
        0.9992363452911377,
        0.9976116418838501
      ],
      "min": [
        -0.9990946650505066,
        -0.9974942207336426,
        -0.9996474981307983
      ],
      "type": "VEC3"
    },
    {
      "bufferView": 0,
      "byteOffset": 347040,
      "componentType": 5125,
      "count": 17352,
      "type": "SCALAR"
    },
    {
      "bufferView": 1,
      "byteOffset": 1665792,
      "componentType": 5126,
      "count": 11564,
      "max": [
        28.293699264526367,
        30.18000030517578,
        25.6825008392334
      ],
      "min": [
        -29.593799591064453,
        -22.194299697875977,
        -24.317100524902344
      ],
      "type": "VEC3"
    },
    {
      "bufferView": 1,
      "byteOffset": 1804560,
      "componentType": 5126,
      "count": 11564,
      "max": [
        0.9999346137046814,
        0.9992363452911377,
        0.9989478588104248
      ],
      "min": [
        -0.9999579787254333,
        -0.9974482655525208,
        -0.9990388751029968
      ],
      "type": "VEC3"
    },
    {
      "bufferView": 0,
      "byteOffset": 416448,
      "componentType": 5125,
      "count": 17346,
      "type": "SCALAR"
    },
    {
      "bufferView": 1,
      "byteOffset": 1943328,
      "componentType": 5126,
      "count": 11564,
      "max": [
        28.293699264526367,
        30.18000030517578,
        25.6825008392334
      ],
      "min": [
        -29.593799591064453,
        -22.194299697875977,
        -24.317100524902344
      ],
      "type": "VEC3"
    },
    {
      "bufferView": 1,
      "byteOffset": 2082096,
      "componentType": 5126,
      "count": 11564,
      "max": [
        0.9999346137046814,
        0.9992363452911377,
        0.998528242111206
      ],
      "min": [
        -0.999531626701355,
        -0.9996094703674316,
        -0.9990387558937073
      ],
      "type": "VEC3"
    },
    {
      "bufferView": 0,
      "byteOffset": 485832,
      "componentType": 5125,
      "count": 17346,
      "type": "SCALAR"
    },
    {
      "bufferView": 1,
      "byteOffset": 2220864,
      "componentType": 5126,
      "count": 11564,
      "max": [
        28.293699264526367,
        30.18000030517578,
        25.6825008392334
      ],
      "min": [
        -29.593799591064453,
        -22.194299697875977,
        -24.317100524902344
      ],
      "type": "VEC3"
    },
    {
      "bufferView": 1,
      "byteOffset": 2359632,
      "componentType": 5126,
      "count": 11564,
      "max": [
        0.9999346137046814,
        0.9992363452911377,
        0.9976116418838501
      ],
      "min": [
        -0.9973026514053345,
        -0.9983295798301697,
        -0.9990386366844177
      ],
      "type": "VEC3"
    },
    {
      "bufferView": 0,
      "byteOffset": 555216,
      "componentType": 5125,
      "count": 17346,
      "type": "SCALAR"
    },
    {
      "bufferView": 1,
      "byteOffset": 2498400,
      "componentType": 5126,
      "count": 11568,
      "max": [
        28.293699264526367,
        30.18000030517578,
        25.6825008392334
      ],
      "min": [
        -29.593799591064453,
        -22.253700256347656,
        -24.317100524902344
      ],
      "type": "VEC3"
    },
    {
      "bufferView": 1,
      "byteOffset": 2637216,
      "componentType": 5126,
      "count": 11568,
      "max": [
        0.9999346137046814,
        0.9993647336959839,
        0.9976116418838501
      ],
      "min": [
        -0.9951568841934204,
        -0.997399628162384,
        -0.9990384578704834
      ],
      "type": "VEC3"
    },
    {
      "bufferView": 0,
      "byteOffset": 624600,
      "componentType": 5125,
      "count": 17352,
      "type": "SCALAR"
    },
    {
      "bufferView": 2,
      "componentType": 5126,
      "count": 2,
      "max": [
        0.10000000149011612
      ],
      "min": [
        0.0
      ],
      "type": "SCALAR"
    },
    {
      "bufferView": 3,
      "componentType": 5126,
      "count": 2,
      "max": [
        1.0,
        1.0,
        1.0
      ],
      "min": [
        1.0,
        1.0,
        1.0
      ],
      "type": "VEC3"
    },
    {
      "bufferView": 2,
      "byteOffset": 8,
      "componentType": 5126,
      "count": 3,
      "max": [
        0.20000000298023224
      ],
      "min": [
        0.0
      ],
      "type": "SCALAR"
    },
    {
      "bufferView": 3,
      "byteOffset": 24,
      "componentType": 5126,
      "count": 3,
      "max": [
        1.0,
        1.0,
        1.0
      ],
      "min": [
        1.000000013351432e-10,
        1.000000013351432e-10,
        1.000000013351432e-10
      ],
      "type": "VEC3"
    },
    {
      "bufferView": 2,
      "byteOffset": 20,
      "componentType": 5126,
      "count": 3,
      "max": [
        0.30000001192092896
      ],
      "min": [
        0.0
      ],
      "type": "SCALAR"
    },
    {
      "bufferView": 3,
      "byteOffset": 60,
      "componentType": 5126,
      "count": 3,
      "max": [
        1.0,
        1.0,
        1.0
      ],
      "min": [
        1.000000013351432e-10,
        1.000000013351432e-10,
        1.000000013351432e-10
      ],
      "type": "VEC3"
    },
    {
      "bufferView": 2,
      "byteOffset": 32,
      "componentType": 5126,
      "count": 3,
      "max": [
        0.4000000059604645
      ],
      "min": [
        0.0
      ],
      "type": "SCALAR"
    },
    {
      "bufferView": 3,
      "byteOffset": 96,
      "componentType": 5126,
      "count": 3,
      "max": [
        1.0,
        1.0,
        1.0
      ],
      "min": [
        1.000000013351432e-10,
        1.000000013351432e-10,
        1.000000013351432e-10
      ],
      "type": "VEC3"
    },
    {
      "bufferView": 2,
      "byteOffset": 44,
      "componentType": 5126,
      "count": 3,
      "max": [
        0.5
      ],
      "min": [
        0.0
      ],
      "type": "SCALAR"
    },
    {
      "bufferView": 3,
      "byteOffset": 132,
      "componentType": 5126,
      "count": 3,
      "max": [
        1.0,
        1.0,
        1.0
      ],
      "min": [
        1.000000013351432e-10,
        1.000000013351432e-10,
        1.000000013351432e-10
      ],
      "type": "VEC3"
    },
    {
      "bufferView": 2,
      "byteOffset": 56,
      "componentType": 5126,
      "count": 3,
      "max": [
        0.6000000238418579
      ],
      "min": [
        0.0
      ],
      "type": "SCALAR"
    },
    {
      "bufferView": 3,
      "byteOffset": 168,
      "componentType": 5126,
      "count": 3,
      "max": [
        1.0,
        1.0,
        1.0
      ],
      "min": [
        1.000000013351432e-10,
        1.000000013351432e-10,
        1.000000013351432e-10
      ],
      "type": "VEC3"
    },
    {
      "bufferView": 2,
      "byteOffset": 68,
      "componentType": 5126,
      "count": 3,
      "max": [
        0.699999988079071
      ],
      "min": [
        0.0
      ],
      "type": "SCALAR"
    },
    {
      "bufferView": 3,
      "byteOffset": 204,
      "componentType": 5126,
      "count": 3,
      "max": [
        1.0,
        1.0,
        1.0
      ],
      "min": [
        1.000000013351432e-10,
        1.000000013351432e-10,
        1.000000013351432e-10
      ],
      "type": "VEC3"
    },
    {
      "bufferView": 2,
      "byteOffset": 80,
      "componentType": 5126,
      "count": 3,
      "max": [
        0.800000011920929
      ],
      "min": [
        0.0
      ],
      "type": "SCALAR"
    },
    {
      "bufferView": 3,
      "byteOffset": 240,
      "componentType": 5126,
      "count": 3,
      "max": [
        1.0,
        1.0,
        1.0
      ],
      "min": [
        1.000000013351432e-10,
        1.000000013351432e-10,
        1.000000013351432e-10
      ],
      "type": "VEC3"
    },
    {
      "bufferView": 2,
      "byteOffset": 92,
      "componentType": 5126,
      "count": 3,
      "max": [
        0.8999999761581421
      ],
      "min": [
        0.0
      ],
      "type": "SCALAR"
    },
    {
      "bufferView": 3,
      "byteOffset": 276,
      "componentType": 5126,
      "count": 3,
      "max": [
        1.0,
        1.0,
        1.0
      ],
      "min": [
        1.000000013351432e-10,
        1.000000013351432e-10,
        1.000000013351432e-10
      ],
      "type": "VEC3"
    },
    {
      "bufferView": 2,
      "byteOffset": 104,
      "componentType": 5126,
      "count": 3,
      "max": [
        1.0
      ],
      "min": [
        0.0
      ],
      "type": "SCALAR"
    },
    {
      "bufferView": 3,
      "byteOffset": 312,
      "componentType": 5126,
      "count": 3,
      "max": [
        1.0,
        1.0,
        1.0
      ],
      "min": [
        1.000000013351432e-10,
        1.000000013351432e-10,
        1.000000013351432e-10
      ],
      "type": "VEC3"
    }
  ],
  "animations": [
    {
      "channels": [
        {
          "sampler": 0,
          "target": {
            "node": 20,
            "path": "scale"
          }
        },
        {
          "sampler": 1,
          "target": {
            "node": 18,
            "path": "scale"
          }
        },
        {
          "sampler": 2,
          "target": {
            "node": 16,
            "path": "scale"
          }
        },
        {
          "sampler": 3,
          "target": {
            "node": 14,
            "path": "scale"
          }
        },
        {
          "sampler": 4,
          "target": {
            "node": 12,
            "path": "scale"
          }
        },
        {
          "sampler": 5,
          "target": {
            "node": 10,
            "path": "scale"
          }
        },
        {
          "sampler": 6,
          "target": {
            "node": 8,
            "path": "scale"
          }
        },
        {
          "sampler": 7,
          "target": {
            "node": 6,
            "path": "scale"
          }
        },
        {
          "sampler": 8,
          "target": {
            "node": 4,
            "path": "scale"
          }
        },
        {
          "sampler": 9,
          "target": {
            "node": 2,
            "path": "scale"
          }
        }
      ],
      "name": "Object_0",
      "samplers": [
        {
          "input": 30,
          "interpolation": "LINEAR",
          "output": 31
        },
        {
          "input": 32,
          "interpolation": "LINEAR",
          "output": 33
        },
        {
          "input": 34,
          "interpolation": "LINEAR",
          "output": 35
        },
        {
          "input": 36,
          "interpolation": "LINEAR",
          "output": 37
        },
        {
          "input": 38,
          "interpolation": "LINEAR",
          "output": 39
        },
        {
          "input": 40,
          "interpolation": "LINEAR",
          "output": 41
        },
        {
          "input": 42,
          "interpolation": "LINEAR",
          "output": 43
        },
        {
          "input": 44,
          "interpolation": "LINEAR",
          "output": 45
        },
        {
          "input": 46,
          "interpolation": "LINEAR",
          "output": 47
        },
        {
          "input": 48,
          "interpolation": "LINEAR",
          "output": 49
        }
      ]
    }
  ],
  "asset": {
    "extras": {
      "author": "n- (https://sketchfab.com/n-)",
      "license": "CC-BY-4.0 (http://creativecommons.org/licenses/by/4.0/)",
      "source": "https://sketchfab.com/3d-models/attractor8-wang-sun-stop-motion2-926acd7aed8a47779685bf3058128b47",
      "title": "attractor/8 Wang-Sun (stop_motion2)"
    },
    "generator": "Sketchfab-12.66.0",
    "version": "2.0"
  },
  "bufferViews": [
    {
      "buffer": 0,
      "byteLength": 694008,
      "name": "floatBufferViews",
      "target": 34963
    },
    {
      "buffer": 0,
      "byteLength": 2776032,
      "byteOffset": 694008,
      "byteStride": 12,
      "name": "floatBufferViews",
      "target": 34962
    },
    {
      "buffer": 0,
      "byteLength": 116,
      "byteOffset": 3470040,
      "name": "floatBufferViews"
    },
    {
      "buffer": 0,
      "byteLength": 348,
      "byteOffset": 3470156,
      "byteStride": 12,
      "name": "floatBufferViews"
    }
  ],
  "buffers": [
    {
      "byteLength": 3470504,
      "uri": "scene.bin"
    }
  ],
  "extensionsUsed": [
    "KHR_materials_unlit"
  ],
  "materials": [
    {
      "doubleSided": true,
      "extensions": {
        "KHR_materials_unlit": {}
      },
      "name": "Scene_-_Root",
      "pbrMetallicRoughness": {
        "metallicFactor": 0.0
      }
    }
  ],
  "meshes": [
    {
      "name": "Object_0",
      "primitives": [
        {
          "attributes": {
            "NORMAL": 1,
            "POSITION": 0
          },
          "indices": 2,
          "material": 0,
          "mode": 4
        }
      ]
    },
    {
      "name": "Object_1",
      "primitives": [
        {
          "attributes": {
            "NORMAL": 4,
            "POSITION": 3
          },
          "indices": 5,
          "material": 0,
          "mode": 4
        }
      ]
    },
    {
      "name": "Object_2",
      "primitives": [
        {
          "attributes": {
            "NORMAL": 7,
            "POSITION": 6
          },
          "indices": 8,
          "material": 0,
          "mode": 4
        }
      ]
    },
    {
      "name": "Object_3",
      "primitives": [
        {
          "attributes": {
            "NORMAL": 10,
            "POSITION": 9
          },
          "indices": 11,
          "material": 0,
          "mode": 4
        }
      ]
    },
    {
      "name": "Object_4",
      "primitives": [
        {
          "attributes": {
            "NORMAL": 13,
            "POSITION": 12
          },
          "indices": 14,
          "material": 0,
          "mode": 4
        }
      ]
    },
    {
      "name": "Object_5",
      "primitives": [
        {
          "attributes": {
            "NORMAL": 16,
            "POSITION": 15
          },
          "indices": 17,
          "material": 0,
          "mode": 4
        }
      ]
    },
    {
      "name": "Object_6",
      "primitives": [
        {
          "attributes": {
            "NORMAL": 19,
            "POSITION": 18
          },
          "indices": 20,
          "material": 0,
          "mode": 4
        }
      ]
    },
    {
      "name": "Object_7",
      "primitives": [
        {
          "attributes": {
            "NORMAL": 22,
            "POSITION": 21
          },
          "indices": 23,
          "material": 0,
          "mode": 4
        }
      ]
    },
    {
      "name": "Object_8",
      "primitives": [
        {
          "attributes": {
            "NORMAL": 25,
            "POSITION": 24
          },
          "indices": 26,
          "material": 0,
          "mode": 4
        }
      ]
    },
    {
      "name": "Object_9",
      "primitives": [
        {
          "attributes": {
            "NORMAL": 28,
            "POSITION": 27
          },
          "indices": 29,
          "material": 0,
          "mode": 4
        }
      ]
    }
  ],
  "nodes": [
    {
      "children": [
        1
      ],
      "matrix": [
        2.220446049250313e-16,
        -1.0,
        -2.220446049250313e-16,
        0.0,
        -1.0,
        -2.2204460492503126e-16,
        -2.2204460492503136e-16,
        0.0,
        2.220446049250313e-16,
        2.220446049250313e-16,
        -1.0,
        0.0,
        3.3136043548583984,
        0.032758712768555416,
        -3.2808456420898438,
        1.0
      ],
      "name": "Sketchfab_model"
    },
    {
      "children": [
        2,
        4,
        6,
        8,
        10,
        12,
        14,
        16,
        18,
        20
      ],
      "name": "sketchfab.timeframe"
    },
    {
      "children": [
        3
      ],
      "name": "Object_2",
      "scale": [
        1.000000013351432e-10,
        1.000000013351432e-10,
        1.000000013351432e-10
      ]
    },
    {
      "mesh": 0,
      "name": "Object_3"
    },
    {
      "children": [
        5
      ],
      "name": "Object_4",
      "scale": [
        1.000000013351432e-10,
        1.000000013351432e-10,
        1.000000013351432e-10
      ]
    },
    {
      "mesh": 1,
      "name": "Object_5"
    },
    {
      "children": [
        7
      ],
      "name": "Object_6",
      "scale": [
        1.000000013351432e-10,
        1.000000013351432e-10,
        1.000000013351432e-10
      ]
    },
    {
      "mesh": 2,
      "name": "Object_7"
    },
    {
      "children": [
        9
      ],
      "name": "Object_8",
      "scale": [
        1.000000013351432e-10,
        1.000000013351432e-10,
        1.000000013351432e-10
      ]
    },
    {
      "mesh": 3,
      "name": "Object_9"
    },
    {
      "children": [
        11
      ],
      "name": "Object_10",
      "scale": [
        1.000000013351432e-10,
        1.000000013351432e-10,
        1.000000013351432e-10
      ]
    },
    {
      "mesh": 4,
      "name": "Object_11"
    },
    {
      "children": [
        13
      ],
      "name": "Object_12",
      "scale": [
        1.000000013351432e-10,
        1.000000013351432e-10,
        1.000000013351432e-10
      ]
    },
    {
      "mesh": 5,
      "name": "Object_13"
    },
    {
      "children": [
        15
      ],
      "name": "Object_14",
      "scale": [
        1.000000013351432e-10,
        1.000000013351432e-10,
        1.000000013351432e-10
      ]
    },
    {
      "mesh": 6,
      "name": "Object_15"
    },
    {
      "children": [
        17
      ],
      "name": "Object_16",
      "scale": [
        1.000000013351432e-10,
        1.000000013351432e-10,
        1.000000013351432e-10
      ]
    },
    {
      "mesh": 7,
      "name": "Object_17"
    },
    {
      "children": [
        19
      ],
      "name": "Object_18",
      "scale": [
        1.000000013351432e-10,
        1.000000013351432e-10,
        1.000000013351432e-10
      ]
    },
    {
      "mesh": 8,
      "name": "Object_19"
    },
    {
      "children": [
        21
      ],
      "name": "Object_20"
    },
    {
      "mesh": 9,
      "name": "Object_21"
    }
  ],
  "scene": 0,
  "scenes": [
    {
      "name": "Sketchfab_Scene",
      "nodes": [
        0
      ]
    }
  ]
}
