{"scene":0,"asset":{"generator":"ImageToStl.com","version":"2.0"},"scenes":[{"name":"Scene","nodes":[0]}],"nodes":[{"name":"Node0","children":[1,2,8]},{"name":"EnvironmentAmbientLight"},{"name":"Root","children":[3]},{"name":"Skl_Root","children":[4]},{"name":"a","children":[5,7]},{"name":"b","children":[6]},{"name":"c"},{"name":"jaw"},{"name":"FishSake__mSake","children":[9]},{"name":"Node9","mesh":0}],"materials":[{"name":"mSake","pbrMetallicRoughness":{"baseColorFactor":[0.85,0.85,0.85,1.0],"metallicFactor":0.0,"roughnessFactor":0.921875,"baseColorTexture":{"index":0}},"emissiveFactor":[0.0,0.0,0.0],"doubleSided":true}],"images":[{"bufferView":0,"name":"","mimeType":"image/png"}],"textures":[{"sampler":0,"source":0}],"samplers":[{"magFilter":9729,"minFilter":9987}],"meshes":[{"name":"Mesh0","primitives":[{"indices":3,"material":0,"attributes":{"POSITION":0,"NORMAL":1,"TEXCOORD_0":2}}]}],"accessors":[{"bufferView":1,"componentType":5126,"count":547,"type":"VEC3","min":[-1.310701,-4.871636,-1.490668],"max":[1.310701,5.097278,2.146482]},{"bufferView":2,"componentType":5126,"count":547,"type":"VEC3"},{"bufferView":3,"componentType":5126,"count":547,"type":"VEC2"},{"bufferView":4,"componentType":5123,"count":7200,"type":"SCALAR"}],"bufferViews":[{"buffer":0,"byteLength":40986,"byteOffset":0},{"target":34962,"buffer":0,"byteLength":6564,"byteOffset":40988},{"target":34962,"buffer":0,"byteLength":6564,"byteOffset":47552},{"target":34962,"buffer":0,"byteLength":4376,"byteOffset":54116},{"target":34963,"buffer":0,"byteLength":14400,"byteOffset":58492}],"buffers":[{"byteLength":72892,"uri":"data:application/octet-stream;base64,"}]}