{"scene":0,"asset":{"generator":"ImageToStl.com","version":"2.0"},"scenes":[{"name":"Scene","nodes":[0]}],"nodes":[{"name":"Node0","children":[1,2,7]},{"name":"EnvironmentAmbientLight"},{"name":"Root","children":[3]},{"name":"Skl_Root","children":[4]},{"name":"a","children":[5,6]},{"name":"b"},{"name":"jaw"},{"name":"FishAntyobi__mAntyobi","children":[8]},{"name":"Node8","mesh":0}],"materials":[{"name":"mAntyobi","pbrMetallicRoughness":{"baseColorFactor":[0.85,0.85,0.85,1.0],"metallicFactor":0.0,"roughnessFactor":0.921875,"baseColorTexture":{"index":0}},"emissiveFactor":[0.0,0.0,0.0],"doubleSided":true}],"images":[{"bufferView":0,"name":"","mimeType":"image/png"}],"textures":[{"sampler":0,"source":0}],"samplers":[{"magFilter":9729,"minFilter":9987}],"meshes":[{"name":"Mesh0","primitives":[{"indices":3,"material":0,"attributes":{"POSITION":0,"NORMAL":1,"TEXCOORD_0":2}}]}],"accessors":[{"bufferView":1,"componentType":5126,"count":220,"type":"VEC3","min":[-0.3904333,-1.772664,-0.5794696],"max":[0.3904333,2.328972,0.5994543]},{"bufferView":2,"componentType":5126,"count":220,"type":"VEC3"},{"bufferView":3,"componentType":5126,"count":220,"type":"VEC2"},{"bufferView":4,"componentType":5123,"count":2700,"type":"SCALAR"}],"bufferViews":[{"buffer":0,"byteLength":10774,"byteOffset":0},{"target":34962,"buffer":0,"byteLength":2640,"byteOffset":10776},{"target":34962,"buffer":0,"byteLength":2640,"byteOffset":13416},{"target":34962,"buffer":0,"byteLength":1760,"byteOffset":16056},{"target":34963,"buffer":0,"byteLength":5400,"byteOffset":17816}],"buffers":[{"byteLength":23216,"uri":"data:application/octet-stream;base64,"}]}